<svg xmlns="http://www.w3.org/2000/svg" xmlns:xlink="http://www.w3.org/1999/xlink" width="2000" zoomAndPan="magnify" viewBox="0 0 1500 1499.999933" height="2000" preserveAspectRatio="xMidYMid meet" version="1.0"><defs><g/><clipPath id="7106f79233"><rect x="0" width="1377" y="0" height="243"/></clipPath><clipPath id="6d84f88ddd"><rect x="0" width="760" y="0" height="73"/></clipPath><clipPath id="337a9989dc"><path d="M 435.414062 528.25 L 507.414062 528.25 L 507.414062 600.25 L 435.414062 600.25 Z M 435.414062 528.25 " clip-rule="nonzero"/></clipPath><clipPath id="d34d3408a5"><path d="M 570.648438 265.898438 L 1064.898438 265.898438 L 1064.898438 1177.898438 L 570.648438 1177.898438 Z M 570.648438 265.898438 " clip-rule="nonzero"/></clipPath><clipPath id="f659882317"><path d="M 649 265.898438 L 1064.898438 265.898438 L 1064.898438 671 L 649 671 Z M 649 265.898438 " clip-rule="nonzero"/></clipPath></defs><rect x="-150" width="1800" fill="#ffffff" y="-149.999993" height="1799.99992" fill-opacity="1"/><rect x="-150" width="1800" fill="#ffffff" y="-149.999993" height="1799.99992" fill-opacity="1"/><g transform="matrix(1, 0, 0, 1, 84, 838)"><g clip-path="url(#7106f79233)"><g fill="#000000" fill-opacity="1"><g transform="translate(3.135241, 180.514622)"><g><path d="M 84.671875 -169.359375 C 90.484375 -169.359375 97.335938 -168.910156 105.234375 -168.015625 C 113.140625 -167.128906 121.242188 -166.320312 129.546875 -165.59375 C 137.859375 -164.875 145.5625 -164.71875 152.65625 -165.125 C 159.757812 -165.53125 165.328125 -166.941406 169.359375 -169.359375 L 163.796875 -152.90625 C 162.179688 -147.582031 160.125 -144.070312 157.625 -142.375 C 155.125 -140.6875 150.804688 -139.757812 144.671875 -139.59375 C 139.515625 -139.59375 133.46875 -139.992188 126.53125 -140.796875 C 119.59375 -141.609375 112.253906 -142.578125 104.515625 -143.703125 C 96.773438 -144.835938 89.15625 -145.925781 81.65625 -146.96875 C 74.15625 -148.019531 67.175781 -148.867188 60.71875 -149.515625 C 47.175781 -150.804688 37.097656 -149.234375 30.484375 -144.796875 C 23.867188 -140.359375 19.753906 -134.351562 18.140625 -126.78125 C 16.203125 -117.425781 15.796875 -107.785156 16.921875 -97.859375 C 18.054688 -87.941406 20.640625 -78.46875 24.671875 -69.4375 C 28.703125 -60.40625 34.226562 -52.378906 41.25 -45.359375 C 48.269531 -38.347656 56.210938 -32.703125 65.078125 -28.421875 C 73.953125 -24.148438 83.265625 -21.445312 93.015625 -20.3125 C 102.773438 -19.1875 112.414062 -19.992188 121.9375 -22.734375 C 135.488281 -26.773438 146.457031 -33.957031 154.84375 -44.28125 C 161.132812 -52.019531 164.84375 -59.113281 165.96875 -65.5625 C 167.09375 -72.019531 166.082031 -77.222656 162.9375 -81.171875 C 159.800781 -85.117188 155.003906 -87.296875 148.546875 -87.703125 C 142.097656 -88.109375 134.519531 -86.050781 125.8125 -81.53125 C 120 -78.625 113.90625 -75.394531 107.53125 -71.84375 C 101.164062 -68.300781 95.039062 -65.078125 89.15625 -62.171875 C 83.269531 -59.273438 78.066406 -57.097656 73.546875 -55.640625 C 69.035156 -54.191406 65.609375 -53.988281 63.265625 -55.03125 C 60.929688 -56.082031 58.226562 -58.945312 55.15625 -63.625 L 46.203125 -77.90625 C 49.921875 -76.445312 54.441406 -76.40625 59.765625 -77.78125 C 65.085938 -79.15625 70.726562 -81.171875 76.6875 -83.828125 C 82.65625 -86.492188 88.421875 -89.195312 93.984375 -91.9375 C 99.554688 -94.675781 104.519531 -96.773438 108.875 -98.234375 C 122.414062 -102.585938 133.660156 -103.59375 142.609375 -101.25 C 151.566406 -98.914062 158.265625 -94.519531 162.703125 -88.0625 C 167.140625 -81.613281 169.359375 -74.195312 169.359375 -65.8125 C 169.359375 -54.84375 166.816406 -45.242188 161.734375 -37.015625 C 156.648438 -28.785156 149.914062 -21.925781 141.53125 -16.4375 C 133.144531 -10.957031 123.988281 -6.847656 114.0625 -4.109375 C 104.144531 -1.367188 94.347656 0 84.671875 0 C 74.671875 0 64.671875 -1.8125 54.671875 -5.4375 C 44.671875 -9.070312 35.554688 -14.476562 27.328125 -21.65625 C 19.109375 -28.832031 12.5 -37.703125 7.5 -48.265625 C 2.5 -58.828125 0 -70.960938 0 -84.671875 C 0 -97.578125 2.695312 -109.632812 8.09375 -120.84375 C 13.5 -132.050781 20.800781 -141.609375 30 -149.515625 C 37.414062 -155.640625 45.800781 -160.476562 55.15625 -164.03125 C 64.507812 -167.582031 74.347656 -169.359375 84.671875 -169.359375 Z M 84.671875 -169.359375 "/></g></g></g><g fill="#000000" fill-opacity="1"><g transform="translate(194.244458, 180.514622)"><g><path d="M 27.09375 -142.75 L 27.34375 -72.828125 C 27.34375 -62.335938 27.863281 -53.460938 28.90625 -46.203125 C 29.957031 -38.953125 32.132812 -33.269531 35.4375 -29.15625 C 38.75 -25.039062 43.671875 -22.457031 50.203125 -21.40625 C 56.734375 -20.363281 65.398438 -20.804688 76.203125 -22.734375 C 84.753906 -24.347656 93.34375 -25.921875 101.96875 -27.453125 C 110.601562 -28.992188 117.90625 -29.765625 123.875 -29.765625 C 128.875 -29.597656 132.335938 -28.664062 134.265625 -26.96875 C 136.203125 -25.28125 137.898438 -21.773438 139.359375 -16.453125 L 143.703125 0 C 140.484375 -2.414062 136.128906 -3.828125 130.640625 -4.234375 C 125.160156 -4.640625 119.191406 -4.476562 112.734375 -3.75 C 106.285156 -3.019531 99.992188 -2.210938 93.859375 -1.328125 C 87.734375 -0.441406 82.332031 0 77.65625 0 C 71.363281 0 64.867188 -1.25 58.171875 -3.75 C 51.484375 -6.25 45.394531 -9.957031 39.90625 -14.875 C 34.425781 -19.800781 30.238281 -25.890625 27.34375 -33.140625 C 27.34375 -27.660156 27.34375 -22.132812 27.34375 -16.5625 C 27.34375 -11 27.34375 -5.476562 27.34375 0 L 0 0 C 0 0 0.398438 -2.660156 1.203125 -7.984375 C 2.015625 -13.304688 2.421875 -19.515625 2.421875 -26.609375 L 2.421875 -142.75 C 2.421875 -149.84375 2.015625 -156.050781 1.203125 -161.375 C 0.398438 -166.695312 0 -169.359375 0 -169.359375 L 29.515625 -169.359375 C 29.515625 -169.359375 29.109375 -166.695312 28.296875 -161.375 C 27.492188 -156.050781 27.09375 -149.84375 27.09375 -142.75 Z M 27.09375 -142.75 "/></g></g></g><g fill="#000000" fill-opacity="1"><g transform="translate(359.953068, 180.514622)"><g><path d="M 100.640625 -169.359375 L 161.375 -23.703125 C 163.789062 -18.054688 166.289062 -12.894531 168.875 -8.21875 C 171.457031 -3.539062 172.988281 -0.800781 173.46875 0 L 144.1875 0 L 86.375 -138.625 C 84.914062 -142.175781 83.015625 -146.648438 80.671875 -152.046875 C 78.335938 -157.453125 76.046875 -161.929688 73.796875 -165.484375 C 72.179688 -157.421875 69.15625 -148.875 64.71875 -139.84375 C 60.28125 -130.8125 55.238281 -121.65625 49.59375 -112.375 C 43.945312 -103.101562 38.503906 -94.03125 33.265625 -85.15625 C 28.023438 -76.289062 23.710938 -67.90625 20.328125 -60 C 15.972656 -49.675781 13.957031 -41.367188 14.28125 -35.078125 C 14.601562 -28.785156 16.578125 -24.671875 20.203125 -22.734375 C 23.828125 -20.804688 28.546875 -21.210938 34.359375 -23.953125 C 37.898438 -25.722656 41.6875 -28.34375 45.71875 -31.8125 C 49.757812 -35.28125 53.875 -39.148438 58.0625 -43.421875 C 62.257812 -47.703125 66.210938 -51.9375 69.921875 -56.125 C 73.628906 -60.320312 76.9375 -63.953125 79.84375 -67.015625 C 82.90625 -70.242188 86.367188 -72.703125 90.234375 -74.390625 C 94.109375 -76.085938 97.984375 -76.050781 101.859375 -74.28125 C 103.472656 -73.632812 105.285156 -72.382812 107.296875 -70.53125 C 109.316406 -68.675781 111.289062 -66.738281 113.21875 -64.71875 C 115.15625 -62.695312 116.769531 -61.046875 118.0625 -59.765625 C 114.519531 -60.566406 110.566406 -59.878906 106.203125 -57.703125 C 101.847656 -55.523438 97.65625 -52.660156 93.625 -49.109375 C 89.113281 -45.242188 84.4375 -40.566406 79.59375 -35.078125 C 74.757812 -29.597656 69.757812 -24.15625 64.59375 -18.75 C 59.4375 -13.34375 54.035156 -8.863281 48.390625 -5.3125 C 42.742188 -1.769531 36.9375 0 30.96875 0 C 18.226562 0 9.679688 -5.160156 5.328125 -15.484375 C 3.066406 -21.128906 2.335938 -27.175781 3.140625 -33.625 C 3.953125 -40.082031 5.769531 -46.65625 8.59375 -53.34375 C 11.414062 -60.039062 14.757812 -66.613281 18.625 -73.0625 C 22.5 -79.519531 26.453125 -85.609375 30.484375 -91.328125 C 34.515625 -97.054688 37.984375 -102.175781 40.890625 -106.6875 C 43.148438 -110.082031 45.929688 -114.519531 49.234375 -120 C 52.535156 -125.488281 55.878906 -131.335938 59.265625 -137.546875 C 62.660156 -143.753906 65.523438 -149.679688 67.859375 -155.328125 C 70.203125 -160.972656 71.453125 -165.648438 71.609375 -169.359375 Z M 100.640625 -169.359375 "/></g></g></g><g fill="#000000" fill-opacity="1"><g transform="translate(555.174764, 180.514622)"><g><path d="M 37.015625 -162.828125 L 14.28125 -44.03125 C 12.820312 -36.769531 12.296875 -29.789062 12.703125 -23.09375 C 13.109375 -16.40625 13.753906 -10.882812 14.640625 -6.53125 C 15.523438 -2.175781 15.96875 0 15.96875 0 L 0 0 C 0 0 0.925781 -2.660156 2.78125 -7.984375 C 4.632812 -13.304688 6.207031 -19.515625 7.5 -26.609375 L 35.078125 -169.359375 L 60 -169.359375 L 98.703125 -45.25 L 137.421875 -169.359375 L 162.34375 -169.359375 L 189.1875 -30.484375 C 190.15625 -25.316406 191.242188 -20.191406 192.453125 -15.109375 C 193.671875 -10.035156 195.242188 -5 197.171875 0 L 167.421875 0 C 168.066406 -3.226562 168.144531 -6.695312 167.65625 -10.40625 C 167.175781 -14.113281 166.535156 -18.222656 165.734375 -22.734375 L 138.625 -162.578125 L 89.28125 -4.109375 L 86.609375 -4.109375 Z M 37.015625 -162.828125 "/></g></g></g><g fill="#000000" fill-opacity="1"><g transform="translate(774.103649, 180.514622)"><g><path d="M 37.015625 -162.828125 L 14.28125 -44.03125 C 12.820312 -36.769531 12.296875 -29.789062 12.703125 -23.09375 C 13.109375 -16.40625 13.753906 -10.882812 14.640625 -6.53125 C 15.523438 -2.175781 15.96875 0 15.96875 0 L 0 0 C 0 0 0.925781 -2.660156 2.78125 -7.984375 C 4.632812 -13.304688 6.207031 -19.515625 7.5 -26.609375 L 35.078125 -169.359375 L 60 -169.359375 L 98.703125 -45.25 L 137.421875 -169.359375 L 162.34375 -169.359375 L 189.1875 -30.484375 C 190.15625 -25.316406 191.242188 -20.191406 192.453125 -15.109375 C 193.671875 -10.035156 195.242188 -5 197.171875 0 L 167.421875 0 C 168.066406 -3.226562 168.144531 -6.695312 167.65625 -10.40625 C 167.175781 -14.113281 166.535156 -18.222656 165.734375 -22.734375 L 138.625 -162.578125 L 89.28125 -4.109375 L 86.609375 -4.109375 Z M 37.015625 -162.828125 "/></g></g></g><g fill="#000000" fill-opacity="1"><g transform="translate(993.032534, 180.514622)"><g><path d="M 29.515625 -169.359375 C 29.515625 -169.359375 29.109375 -166.695312 28.296875 -161.375 C 27.492188 -156.050781 27.09375 -149.84375 27.09375 -142.75 L 27.09375 -26.609375 C 27.09375 -19.515625 27.492188 -13.304688 28.296875 -7.984375 C 29.109375 -2.660156 29.515625 0 29.515625 0 L 0 0 C 0 0 0.398438 -2.660156 1.203125 -7.984375 C 2.015625 -13.304688 2.421875 -19.515625 2.421875 -26.609375 L 2.421875 -142.75 C 2.421875 -149.84375 2.015625 -156.050781 1.203125 -161.375 C 0.398438 -166.695312 0 -169.359375 0 -169.359375 Z M 29.515625 -169.359375 "/></g></g></g><g fill="#000000" fill-opacity="1"><g transform="translate(1044.317579, 180.514622)"><g><path d="M 0.484375 -43.546875 C -0.804688 -50.640625 -0.0390625 -57.128906 2.78125 -63.015625 C 5.601562 -68.910156 9.835938 -73.390625 15.484375 -76.453125 C 21.128906 -79.515625 27.582031 -80.160156 34.84375 -78.390625 C 31.132812 -77.253906 28.390625 -75.070312 26.609375 -71.84375 C 24.835938 -68.625 23.867188 -65.078125 23.703125 -61.203125 C 23.546875 -57.335938 23.789062 -53.710938 24.4375 -50.328125 C 26.53125 -40.972656 30.921875 -33.023438 37.609375 -26.484375 C 44.304688 -19.953125 52.289062 -15.035156 61.5625 -11.734375 C 70.84375 -8.429688 80.398438 -6.816406 90.234375 -6.890625 C 100.078125 -6.972656 109.113281 -8.867188 117.34375 -12.578125 C 124.28125 -15.804688 129.5625 -20.082031 133.1875 -25.40625 C 136.8125 -30.726562 138.785156 -36.453125 139.109375 -42.578125 C 139.429688 -48.710938 138.0625 -54.640625 135 -60.359375 C 131.9375 -66.085938 127.257812 -70.96875 120.96875 -75 C 113.0625 -80 104.347656 -83.425781 94.828125 -85.28125 C 85.316406 -87.132812 75.679688 -88.582031 65.921875 -89.625 C 56.171875 -90.675781 46.859375 -92.332031 37.984375 -94.59375 C 32.015625 -96.207031 26.488281 -98.425781 21.40625 -101.25 C 16.332031 -104.070312 12.257812 -107.820312 9.1875 -112.5 C 6.125 -117.175781 4.59375 -122.898438 4.59375 -129.671875 C 4.4375 -135.804688 5.6875 -141.007812 8.34375 -145.28125 C 11.007812 -149.550781 14.519531 -153.140625 18.875 -156.046875 C 25.488281 -160.722656 33.832031 -164.109375 43.90625 -166.203125 C 53.988281 -168.304688 64.59375 -169.359375 75.71875 -169.359375 C 89.113281 -169.359375 102.097656 -167.90625 114.671875 -165 C 127.253906 -162.09375 137.335938 -157.898438 144.921875 -152.421875 L 135.96875 -133.0625 C 127.738281 -140.15625 118.664062 -146.566406 108.75 -152.296875 C 98.832031 -158.023438 88.390625 -161.859375 77.421875 -163.796875 C 73.390625 -164.597656 68.628906 -165 63.140625 -165 C 57.660156 -165 52.132812 -164.472656 46.5625 -163.421875 C 41 -162.378906 35.960938 -160.648438 31.453125 -158.234375 C 25.640625 -155.160156 21.722656 -151.164062 19.703125 -146.25 C 17.691406 -141.332031 17.691406 -136.535156 19.703125 -131.859375 C 21.722656 -127.179688 25.960938 -123.390625 32.421875 -120.484375 C 38.546875 -117.898438 45.640625 -116.125 53.703125 -115.15625 C 61.773438 -114.1875 70.285156 -113.257812 79.234375 -112.375 C 88.179688 -111.488281 97.007812 -109.835938 105.71875 -107.421875 C 114.4375 -105.003906 122.421875 -100.972656 129.671875 -95.328125 C 136.773438 -89.835938 142.179688 -83.019531 145.890625 -74.875 C 149.597656 -66.726562 150.566406 -57.578125 148.796875 -47.421875 C 147.335938 -38.710938 144.109375 -31.332031 139.109375 -25.28125 C 134.109375 -19.226562 127.976562 -14.347656 120.71875 -10.640625 C 113.46875 -6.929688 105.769531 -4.226562 97.625 -2.53125 C 89.476562 -0.84375 81.535156 0 73.796875 0 C 66.535156 0 58.953125 -0.765625 51.046875 -2.296875 C 43.140625 -3.828125 35.640625 -6.328125 28.546875 -9.796875 C 21.453125 -13.265625 15.363281 -17.78125 10.28125 -23.34375 C 5.195312 -28.90625 1.929688 -35.640625 0.484375 -43.546875 Z M 0.484375 -43.546875 "/></g></g></g><g fill="#000000" fill-opacity="1"><g transform="translate(1215.106247, 180.514622)"><g><path d="M 36.53125 -164.765625 C 32.976562 -164.765625 29.101562 -164.441406 24.90625 -163.796875 C 20.71875 -163.148438 16.726562 -162.421875 12.9375 -161.609375 C 9.15625 -160.804688 6.050781 -160.082031 3.625 -159.4375 C 1.207031 -158.789062 0 -158.46875 0 -158.46875 L 0 -169.359375 L 138.625 -169.359375 L 138.625 -158.46875 C 138.625 -158.46875 137.414062 -158.789062 135 -159.4375 C 132.582031 -160.082031 129.476562 -160.804688 125.6875 -161.609375 C 121.894531 -162.421875 117.898438 -163.148438 113.703125 -163.796875 C 109.515625 -164.441406 105.644531 -164.765625 102.09375 -164.765625 L 81.78125 -164.765625 L 81.78125 -26.609375 C 81.78125 -19.515625 82.179688 -13.304688 82.984375 -7.984375 C 83.785156 -2.660156 84.1875 0 84.1875 0 L 54.671875 0 C 54.671875 0 55.035156 -2.660156 55.765625 -7.984375 C 56.492188 -13.304688 56.859375 -19.515625 56.859375 -26.609375 L 56.859375 -164.765625 Z M 36.53125 -164.765625 "/></g></g></g></g></g><g transform="matrix(1, 0, 0, 1, 361, 1105)"><g clip-path="url(#6d84f88ddd)"><g fill="#000000" fill-opacity="1"><g transform="translate(1.826126, 54.587888)"><g><path d="M 42.078125 -12.515625 C 40.546875 -8.585938 38.054688 -5.4375 34.609375 -3.0625 C 31.117188 -0.613281 27.285156 0.609375 23.109375 0.609375 C 17.453125 0.609375 12.617188 -1.476562 8.609375 -5.65625 C 4.671875 -9.75 2.703125 -14.664062 2.703125 -20.40625 C 2.703125 -23.25 3.222656 -25.957031 4.265625 -28.53125 C 5.316406 -31.0625 6.765625 -33.285156 8.609375 -35.203125 C 12.617188 -39.378906 17.453125 -41.46875 23.109375 -41.46875 C 27.285156 -41.46875 31.097656 -40.285156 34.546875 -37.921875 C 37.992188 -35.515625 40.484375 -32.363281 42.015625 -28.46875 L 37.375 -28.46875 C 35.164062 -32.519531 31.875 -35.207031 27.5 -36.53125 C 26.0625 -36.9375 24.398438 -37.140625 22.515625 -37.140625 C 20.628906 -37.140625 18.703125 -36.695312 16.734375 -35.8125 C 14.765625 -34.882812 13.054688 -33.660156 11.609375 -32.140625 C 8.484375 -28.890625 6.921875 -24.976562 6.921875 -20.40625 C 6.921875 -15.875 8.484375 -11.984375 11.609375 -8.734375 C 14.785156 -5.398438 18.617188 -3.734375 23.109375 -3.734375 C 26.160156 -3.734375 28.96875 -4.535156 31.53125 -6.140625 C 34.0625 -7.742188 36.03125 -9.867188 37.4375 -12.515625 Z M 42.078125 -12.515625 "/></g></g></g><g fill="#000000" fill-opacity="1"><g transform="translate(93.812766, 54.587888)"><g><path d="M 40.5625 -20.578125 C 40.5625 -25.191406 38.914062 -29.144531 35.625 -32.4375 C 32.34375 -35.726562 28.375 -37.375 23.71875 -37.375 C 19.101562 -37.375 15.148438 -35.726562 11.859375 -32.4375 C 8.566406 -29.144531 6.921875 -25.191406 6.921875 -20.578125 C 6.921875 -15.929688 8.566406 -11.960938 11.859375 -8.671875 C 15.148438 -5.378906 19.101562 -3.734375 23.71875 -3.734375 C 28.375 -3.734375 32.34375 -5.378906 35.625 -8.671875 C 38.914062 -11.960938 40.5625 -15.929688 40.5625 -20.578125 Z M 44.78125 -20.578125 C 44.78125 -17.691406 44.238281 -14.96875 43.15625 -12.40625 C 42.03125 -9.832031 40.523438 -7.601562 38.640625 -5.71875 C 36.710938 -3.789062 34.46875 -2.285156 31.90625 -1.203125 C 29.332031 -0.078125 26.601562 0.484375 23.71875 0.484375 C 20.820312 0.484375 18.113281 -0.078125 15.59375 -1.203125 C 13.019531 -2.285156 10.789062 -3.789062 8.90625 -5.71875 C 6.976562 -7.601562 5.472656 -9.832031 4.390625 -12.40625 C 3.265625 -14.96875 2.703125 -17.691406 2.703125 -20.578125 C 2.703125 -23.472656 3.265625 -26.203125 4.390625 -28.765625 C 5.472656 -31.335938 6.976562 -33.566406 8.90625 -35.453125 C 10.789062 -37.335938 13.019531 -38.84375 15.59375 -39.96875 C 18.113281 -41.050781 20.820312 -41.59375 23.71875 -41.59375 C 26.601562 -41.59375 29.332031 -41.050781 31.90625 -39.96875 C 34.46875 -38.84375 36.710938 -37.335938 38.640625 -35.453125 C 40.523438 -33.566406 42.03125 -31.335938 43.15625 -28.765625 C 44.238281 -26.203125 44.78125 -23.472656 44.78125 -20.578125 Z M 44.78125 -20.578125 "/></g></g></g><g fill="#000000" fill-opacity="1"><g transform="translate(189.407866, 54.587888)"><g><path d="M 15.890625 -19.3125 C 7.546875 -21.238281 3.375 -24.8125 3.375 -30.03125 C 3.375 -33.882812 4.71875 -36.773438 7.40625 -38.703125 C 10.09375 -40.585938 13.242188 -41.53125 16.859375 -41.53125 C 24.835938 -41.53125 29.570312 -38.5625 31.0625 -32.625 L 26.484375 -32.625 C 25.679688 -36.15625 22.472656 -37.921875 16.859375 -37.921875 C 12.921875 -37.921875 10.171875 -36.753906 8.609375 -34.421875 C 8.003906 -33.546875 7.703125 -32.441406 7.703125 -31.109375 C 7.703125 -28.585938 9.066406 -26.644531 11.796875 -25.28125 C 13.078125 -24.59375 15.804688 -23.707031 19.984375 -22.625 C 24.148438 -21.539062 27.179688 -20.335938 29.078125 -19.015625 C 31.679688 -17.171875 32.984375 -14.582031 32.984375 -11.25 C 32.984375 -7.125 31.359375 -3.992188 28.109375 -1.859375 C 25.378906 -0.0976562 22.007812 0.78125 18 0.78125 C 8.925781 0.78125 3.671875 -2.664062 2.234375 -9.5625 L 7.21875 -9.5625 C 7.976562 -5.226562 11.570312 -3.0625 18 -3.0625 C 22.570312 -3.0625 25.757812 -4.328125 27.5625 -6.859375 C 28.289062 -7.859375 28.65625 -9.222656 28.65625 -10.953125 C 28.65625 -12.640625 27.988281 -14.023438 26.65625 -15.109375 C 24.769531 -16.628906 21.179688 -18.03125 15.890625 -19.3125 Z M 15.890625 -19.3125 "/></g></g></g><g fill="#000000" fill-opacity="1"><g transform="translate(272.072654, 54.587888)"><g><path d="M 42.25 0 L 35.875 -29.125 L 23.59375 2.40625 L 11.25 -29.125 L 4.9375 0 L 0.609375 0 L 10.171875 -43.640625 L 23.59375 -8.609375 L 37.015625 -43.640625 L 46.53125 0 Z M 42.25 0 "/></g></g></g><g fill="#000000" fill-opacity="1"><g transform="translate(367.306899, 54.587888)"><g><path d="M 28.828125 0 L 4.515625 0 L 4.515625 -40.921875 L 28.828125 -40.921875 L 28.828125 -37.015625 L 8.734375 -37.015625 L 8.734375 -22.453125 L 28.234375 -22.453125 L 28.234375 -18.484375 L 8.734375 -18.484375 L 8.734375 -3.90625 L 28.828125 -3.90625 Z M 28.828125 0 "/></g></g></g><g fill="#000000" fill-opacity="1"><g transform="translate(448.768868, 54.587888)"><g><path d="M 1.203125 -37.140625 L 1.203125 -41.046875 L 25.28125 -41.046875 L 25.28125 -37.140625 L 15.34375 -37.140625 L 15.34375 -0.125 L 11.140625 -0.125 L 11.140625 -37.140625 Z M 1.203125 -37.140625 "/></g></g></g><g fill="#000000" fill-opacity="1"><g transform="translate(523.374818, 54.587888)"><g><path d="M 8.734375 0 L 4.515625 0 L 4.515625 -40.921875 L 8.734375 -40.921875 Z M 8.734375 0 "/></g></g></g><g fill="#000000" fill-opacity="1"><g transform="translate(584.749751, 54.587888)"><g><path d="M 42.078125 -12.515625 C 40.546875 -8.585938 38.054688 -5.4375 34.609375 -3.0625 C 31.117188 -0.613281 27.285156 0.609375 23.109375 0.609375 C 17.453125 0.609375 12.617188 -1.476562 8.609375 -5.65625 C 4.671875 -9.75 2.703125 -14.664062 2.703125 -20.40625 C 2.703125 -23.25 3.222656 -25.957031 4.265625 -28.53125 C 5.316406 -31.0625 6.765625 -33.285156 8.609375 -35.203125 C 12.617188 -39.378906 17.453125 -41.46875 23.109375 -41.46875 C 27.285156 -41.46875 31.097656 -40.285156 34.546875 -37.921875 C 37.992188 -35.515625 40.484375 -32.363281 42.015625 -28.46875 L 37.375 -28.46875 C 35.164062 -32.519531 31.875 -35.207031 27.5 -36.53125 C 26.0625 -36.9375 24.398438 -37.140625 22.515625 -37.140625 C 20.628906 -37.140625 18.703125 -36.695312 16.734375 -35.8125 C 14.765625 -34.882812 13.054688 -33.660156 11.609375 -32.140625 C 8.484375 -28.890625 6.921875 -24.976562 6.921875 -20.40625 C 6.921875 -15.875 8.484375 -11.984375 11.609375 -8.734375 C 14.785156 -5.398438 18.617188 -3.734375 23.109375 -3.734375 C 26.160156 -3.734375 28.96875 -4.535156 31.53125 -6.140625 C 34.0625 -7.742188 36.03125 -9.867188 37.4375 -12.515625 Z M 42.078125 -12.515625 "/></g></g></g><g fill="#000000" fill-opacity="1"><g transform="translate(676.736392, 54.587888)"><g><path d="M 15.890625 -19.3125 C 7.546875 -21.238281 3.375 -24.8125 3.375 -30.03125 C 3.375 -33.882812 4.71875 -36.773438 7.40625 -38.703125 C 10.09375 -40.585938 13.242188 -41.53125 16.859375 -41.53125 C 24.835938 -41.53125 29.570312 -38.5625 31.0625 -32.625 L 26.484375 -32.625 C 25.679688 -36.15625 22.472656 -37.921875 16.859375 -37.921875 C 12.921875 -37.921875 10.171875 -36.753906 8.609375 -34.421875 C 8.003906 -33.546875 7.703125 -32.441406 7.703125 -31.109375 C 7.703125 -28.585938 9.066406 -26.644531 11.796875 -25.28125 C 13.078125 -24.59375 15.804688 -23.707031 19.984375 -22.625 C 24.148438 -21.539062 27.179688 -20.335938 29.078125 -19.015625 C 31.679688 -17.171875 32.984375 -14.582031 32.984375 -11.25 C 32.984375 -7.125 31.359375 -3.992188 28.109375 -1.859375 C 25.378906 -0.0976562 22.007812 0.78125 18 0.78125 C 8.925781 0.78125 3.671875 -2.664062 2.234375 -9.5625 L 7.21875 -9.5625 C 7.976562 -5.226562 11.570312 -3.0625 18 -3.0625 C 22.570312 -3.0625 25.757812 -4.328125 27.5625 -6.859375 C 28.289062 -7.859375 28.65625 -9.222656 28.65625 -10.953125 C 28.65625 -12.640625 27.988281 -14.023438 26.65625 -15.109375 C 24.769531 -16.628906 21.179688 -18.03125 15.890625 -19.3125 Z M 15.890625 -19.3125 "/></g></g></g></g></g><g clip-path="url(#337a9989dc)"><path fill="#000000" d="M 471.472656 528.25 C 467.957031 557.945312 465.109375 560.792969 435.414062 564.308594 C 435.476562 564.316406 435.535156 564.324219 435.597656 564.328125 L 435.597656 564.332031 L 435.601562 564.328125 C 465.121094 567.835938 467.964844 570.734375 471.472656 600.367188 C 474.988281 570.671875 477.835938 567.820312 507.53125 564.308594 C 477.835938 560.792969 474.988281 557.945312 471.472656 528.25 Z M 471.472656 528.25 " fill-opacity="1" fill-rule="nonzero"/></g><g clip-path="url(#d34d3408a5)"><path stroke-linecap="butt" transform="matrix(0.0557956, 0, 0, -0.0557828, 572.685272, 1177.736591)" fill="none" stroke-linejoin="miter" d="M 2982.536189 16300.001581 C 3315.433766 16016.39611 3648.331344 15732.790639 3891.826144 15436.93061 C 4135.390955 15141.000555 4289.482977 14832.815943 4329.528701 14632.40141 C 4369.644434 14431.986877 4295.643858 14339.622527 4126.079624 14361.120522 C 3956.5854 14382.688544 3691.457508 14518.328987 3426.399626 14518.328987 C 3161.271734 14518.328987 2896.213852 14382.688544 2631.08596 14170.019453 C 2366.028078 13957.280337 2100.970196 13667.5826 2063.934902 13707.707522 C 2026.969619 13747.692392 2218.096935 14117.639973 2538.602742 14392.002007 C 2859.178559 14666.294015 3309.272886 14845.070501 3620.607382 14888.206543 C 3931.871868 14931.412611 4104.516542 14838.908209 4150.793156 14635.482556 C 4196.99976 14431.986877 4116.838303 14117.639973 3931.871868 13877.170544 C 3746.975442 13636.771141 3457.204028 13470.319239 3275.318033 13263.81244 C 3093.502048 13057.305641 3019.501472 12810.67392 3068.788516 12752.132149 C 3118.14557 12693.520351 3290.790244 12822.998504 3494.169311 12909.270588 C 3697.618388 12995.612698 3931.871868 13038.818766 4123.069194 13075.792516 C 4314.126499 13112.766267 4462.127652 13143.577725 4582.264822 13263.81244 C 4702.542012 13383.977128 4795.025229 13593.565073 4801.1161 13608.970802 C 4807.34699 13624.376532 4727.185534 13445.600046 4616.219674 13350.084524 C 4505.253815 13254.498976 4363.483553 13242.174393 4221.713292 13288.391581 C 4079.87302 13334.678795 3938.102758 13439.50778 3922.630547 13482.573796 C 3907.228346 13525.779864 4018.194205 13507.292989 4098.355661 13414.788587 C 4178.517118 13322.424237 4227.804162 13155.902309 4240.125923 13001.77499 C 4252.517694 12847.577644 4227.804162 12705.914961 4184.677999 12647.303163 C 4141.481825 12588.691366 4079.87302 12613.410559 3978.148481 12634.97858 C 3876.423943 12656.476575 3734.653681 12675.033476 3688.377067 12739.807565 C 3642.170464 12804.511628 3691.457508 12915.502905 3793.182046 12973.974651 C 3894.906585 13032.586448 4049.068617 13038.818766 4135.390955 13029.505302 C 4221.713292 13020.261865 4240.125923 12995.612698 4246.286804 12906.189442 C 4252.517694 12816.836212 4246.286804 12662.708893 4212.401961 12598.00483 C 4178.517118 12533.300767 4116.838303 12557.879907 3931.871868 12604.097095 C 3746.975442 12650.384309 3438.721387 12718.169518 3266.076712 12718.169518 C 3093.502048 12718.169518 3056.466755 12650.384309 3259.915832 12560.961053 C 3463.364909 12471.607823 3907.228346 12360.616546 4289.482977 12262.019879 C 4671.667599 12163.423211 4992.243416 12077.011075 5217.255574 12003.1336 C 5442.337743 11929.116074 5571.786244 11867.42313 5685.832543 11885.910006 C 5799.878843 11904.396881 5898.522941 12003.1336 5917.005583 12037.026205 C 5935.488224 12070.918809 5873.809409 12040.107351 5833.763686 11953.695215 C 5793.717962 11867.42313 5775.235321 11725.620395 5839.924566 11611.617998 C 5904.683821 11497.475549 6052.614964 11411.203465 6163.580823 11420.516929 C 6274.546682 11429.69034 6348.547258 11534.519325 6416.386954 11633.186019 C 6484.15664 11731.782687 6545.835455 11824.287088 6650.640433 11888.991152 C 6755.445412 11953.695215 6903.376554 11990.668965 6968.13581 11959.927532 C 7032.825055 11929.116074 7014.342414 11830.519406 6940.411848 11750.269562 C 6866.411271 11670.229795 6736.892761 11608.466826 6727.65144 11519.113596 C 6718.410119 11429.69034 6829.375978 11312.606797 6965.05537 11220.102396 C 7100.664751 11127.597994 7260.987664 11059.812785 7359.561752 10951.97268 C 7458.205851 10844.062548 7495.241144 10696.097521 7461.286291 10526.634499 C 7427.401448 10356.961398 7322.596469 10165.930355 7304.113828 10144.43236 C 7285.631186 10122.794313 7353.400872 10270.689314 7313.355148 10335.463403 C 7273.239415 10400.167466 7125.308273 10381.680591 6986.618451 10264.597049 C 6847.92863 10147.373454 6718.410119 9931.623217 6684.525276 9928.612098 C 6650.640433 9925.460926 6712.249239 10135.118896 6804.732456 10356.961398 C 6897.215674 10579.013978 7020.503294 10813.321116 7131.469153 10865.630569 C 7242.435013 10918.010049 7341.079111 10788.601923 7368.873083 10622.079994 C 7396.597045 10455.698118 7353.400872 10252.202439 7421.240567 10138.200042 C 7489.080263 10024.127619 7667.815808 9999.478452 7784.942548 9922.37978 C 7902.069287 9845.351133 7957.587222 9715.872981 7948.345901 9638.844335 C 7939.10458 9561.745662 7865.104004 9537.096495 7800.344749 9574.070245 C 7735.655504 9611.114022 7680.207579 9709.710689 7473.608052 9759.079049 C 7267.148545 9808.377383 6909.537435 9808.377383 6838.617299 9848.432279 C 6767.767173 9888.487175 6983.538011 9968.666994 7217.791491 9959.423556 C 7452.04497 9950.180119 7704.851101 9851.513425 7794.183868 9712.791835 C 7883.586646 9574.070245 7809.58607 9395.363786 7818.8974 9247.398758 C 7828.138721 9099.433731 7920.621939 8982.280162 8053.15088 8788.097947 C 8185.679821 8593.915732 8358.324495 8322.634844 8339.841854 8063.678539 C 8321.289202 7804.792261 8111.679245 7558.16054 7606.136993 7382.4652 C 7100.664751 7206.76986 6299.260214 7102.010901 5331.371884 7102.010901 C 4363.483553 7102.010901 3229.111429 7206.76986 2473.913497 7499.618769 C 1718.715564 7792.467678 1342.621813 8273.33651 994.322034 8809.665968 C 646.022255 9345.995426 325.446438 9937.855535 168.273975 10443.303508 C 11.031502 10948.891534 17.192382 11368.067423 152.801764 11633.186019 C 288.481155 11898.304615 553.539037 12009.225866 1222.414633 12003.1336 C 1891.360238 11996.901283 2964.053547 11873.585422 3861.021742 11500.626721 C 4757.989936 11127.597994 5479.303026 10504.996452 5901.603381 9796.0528 C 6323.903736 9087.109147 6447.191357 8291.823385 6323.903736 7619.853483 C 6200.616116 6947.813555 5830.683245 6399.159514 5322.060553 5751.838779 C 4813.507871 5104.518044 4166.195357 4358.600642 3750.055883 3600.358656 C 3333.916408 2842.046644 3148.949973 2071.410049 2809.891514 1476.538819 C 2470.833056 881.597564 1977.612565 462.421675 1484.462084 43.17576 " stroke="#231f20" stroke-width="95.870003" stroke-opacity="1" stroke-miterlimit="22.926001"/></g><g clip-path="url(#f659882317)"><path stroke-linecap="butt" transform="matrix(0.0533274, 0, 0, -0.0533152, 572.685272, 1177.736591)" fill="none" stroke-linejoin="miter" d="M 4697.661423 15158.283522 C 4804.167465 14845.359497 4910.600256 14532.582007 5097.608457 14271.384595 C 5284.689909 14010.113915 5552.34677 13800.496581 5899.040784 13671.473119 C 6245.808048 13542.522924 6671.465963 13494.093334 6952.08814 13423.097459 C 7232.710317 13352.174852 7368.150256 13258.68596 7435.906851 13147.39315 C 7503.590195 13036.10034 7503.590195 12907.076877 7497.144162 12832.930515 C 7490.69813 12758.784153 7477.806064 12739.441624 7469.748523 12774.902927 C 7461.690982 12810.437498 7458.467966 12900.702635 7405.214945 12950.670835 C 7352.035174 13000.712303 7248.825399 13010.310301 7169.788247 13055.516136 C 7090.751095 13100.575437 7035.959817 13181.315843 7006.952669 13273.192857 C 6977.872271 13365.069871 6974.649255 13468.303295 6889.23932 13574.687206 C 6803.756135 13681.217651 6636.012782 13790.825317 6532.803007 13856.912292 C 6429.593232 13923.072534 6390.917036 13945.565551 6392.528544 13911.789392 C 6394.140052 13877.866698 6436.039265 13787.601562 6508.630384 13739.171971 C 6581.221504 13690.815648 6684.431279 13684.368139 6663.481672 13753.678868 C 6642.458815 13823.062865 6497.349827 13968.205102 6394.140052 14261.71333 C 6290.930277 14555.221558 6229.692966 14997.022511 6215.116141 15364.677101 C 6200.612568 15732.404958 6232.842732 16025.913187 6329.606474 16143.58024 C 6426.370216 16261.32056 6587.667536 16203.292972 6671.465963 16062.986368 C 6755.337639 15922.606496 6761.783672 15700.094143 6881.108529 15503.445095 C 7000.433386 15306.576246 7232.710317 15135.717238 7395.545896 14964.784962 C 7558.381474 14793.779419 7651.99545 14622.920411 7624.52656 14492.285071 C 7597.130921 14361.722999 7448.798916 14271.384595 7469.748523 14297.174634 C 7490.69813 14322.964673 7681.002597 14464.883155 7892.256672 14451.988135 C 8103.437496 14439.093116 8335.714428 14271.384595 8446.981744 14079.497912 C 8558.24906 13887.61123 8548.58001 13671.473119 8592.090732 13521.49525 C 8635.601453 13371.517381 8732.365195 13287.699754 8851.690052 13231.284044 C 8971.088159 13174.795067 9112.974131 13145.781273 9156.484852 13107.096214 C 9199.995574 13068.411156 9145.204295 13019.981565 9054.886586 13029.726097 C 8964.568876 13039.397362 8838.797986 13107.096214 8679.185425 13192.598986 C 8519.572863 13278.02849 8326.045378 13381.188646 8111.568288 13411.887584 C 7897.091197 13442.513256 7661.664499 13400.604442 7461.690982 13423.097459 C 7261.717465 13445.737011 7097.197128 13532.778392 7098.881887 13508.600231 C 7100.420144 13484.422069 7268.163498 13349.024364 7527.836068 13257.074083 C 7787.362138 13165.123802 8138.963927 13116.767479 8395.340231 13139.333763 C 8651.716535 13161.900047 8813.013855 13255.388938 8877.547434 13377.964891 C 8942.007761 13500.614111 8909.777598 13652.13059 8827.517429 13829.510375 C 8745.330511 14006.890161 8613.040338 14210.133252 8474.377383 14335.93296 C 8335.714428 14461.6594 8190.532189 14510.015723 8079.338124 14514.924622 C 7967.997557 14519.686987 7890.571913 14481.001929 7934.155885 14510.015723 C 7977.666606 14539.102784 8142.186943 14635.81543 8142.186943 14805.135828 C 8142.186943 14974.529494 7977.666606 15216.31111 7864.861033 15464.686769 C 7751.908958 15712.989162 7690.671647 15967.812332 7616.469019 16114.639713 C 7542.266392 16261.32056 7455.244949 16300.005618 7352.035174 16214.502847 C 7248.825399 16129.073343 7129.500542 15919.382741 7071.412997 15753.286098 C 7013.398702 15587.189455 7016.621718 15464.686769 7019.844735 15342.110817 " stroke="#231f20" stroke-width="100.307999" stroke-opacity="1" stroke-miterlimit="22.926001"/></g></svg>